<svg width="748" height="620" viewBox="0 0 748 620" fill="none" xmlns="http://www.w3.org/2000/svg">
<g filter="url(#filter0_d_2309_16906)">
<path d="M207.403 285.457L269.349 352.191C271.606 352.313 273.71 352.404 275.662 352.496L208.562 281.309C208.166 282.681 207.8 284.054 207.403 285.457ZM432.615 427.8L435.208 425.055C436.062 422.92 437.221 419.901 438.654 416.21L429.687 425.879C430.938 426.702 431.944 427.343 432.646 427.8H432.615ZM210.545 274.324L283.409 352.892C287.435 353.075 289.814 353.197 289.814 353.197L290.028 352.892L211.734 270.054C211.338 271.427 210.941 272.83 210.545 274.324ZM213.686 263.161L292.925 348.714L295.975 344.352L214.937 258.83C214.571 260.142 214.174 261.575 213.717 263.161H213.686ZM415.657 416.637L453.935 376.255C455.338 372.565 456.71 368.935 458.052 365.458L412.546 414.594C413.614 415.295 414.651 415.997 415.657 416.668V416.637ZM395.466 403.248C396.564 403.98 397.632 404.681 398.699 405.413L467.782 332.915L464.488 328.584L395.436 403.248H395.466ZM533.631 179.225C532.259 178.127 530.947 177.06 529.636 175.992L343.067 173.003L343.555 172.18C345.355 172.18 442.04 170.685 521.553 169.465C519.815 168.062 518.229 166.781 516.765 165.622C449.604 164.646 371.829 163.701 348.801 163.274L349.533 162.023C350.997 162.023 421.208 160.986 489.406 159.98L487.851 155.1C431.212 154.429 373.415 153.91 354.505 153.514L355.481 151.836L486.234 150.037L484.709 145.248L360.33 143.54L361.428 141.649L483.062 140.063L482.33 137.745L478.823 135.183L366.095 133.719L367.406 131.493L472.021 130.212L465.006 125.057L371.829 123.898L373.354 121.306L460.218 120.299L464.274 115.084L377.593 114.077L379.301 111.119L468.056 110.173L470.771 106.666C470.771 106.666 470.588 106.147 470.222 105.202L383.327 104.256L385.249 100.962L468.361 100.139C467.843 98.705 467.233 97.058 466.562 95.228L389.092 94.4655L391.227 90.8055L464.671 90.1345C464.091 88.579 463.512 86.9625 462.871 85.285L394.826 84.6445L397.174 80.6185L460.98 80.0695C460.401 78.514 459.821 76.928 459.211 75.3115L400.56 74.8235L403.122 70.4315L457.259 70.0045C456.68 68.4795 456.131 66.924 455.551 65.3685L406.324 65.0025L409.1 60.275L453.538 59.97C452.989 58.4755 452.44 56.981 451.861 55.4865L412.028 55.212L415.017 50.1185L449.787 49.905C449.238 48.441 448.719 47.0075 448.17 45.574L417.762 45.391L420.964 39.901L446.005 39.8095C445.486 38.4065 444.968 37.034 444.48 35.692L423.496 35.57L427.034 29.5005V29.7445L442.253 29.6835C441.735 28.3415 441.277 27.03 440.82 25.81L429.26 25.749L433.134 19.1V19.5575H438.471C437.953 18.124 437.465 16.904 437.099 15.928H434.994L436.245 13.7625C436.062 13.305 435.97 13.061 435.94 13.061C435.909 13.061 435.635 13.2135 435.177 13.5185L433.652 15.928H433.134V16.721L427.43 25.749H427.064V26.3285L421.208 35.57H420.995V35.936L415.017 45.391H414.925V45.5435L309.578 212.013L308.999 211.433L418.677 24.163C417.426 24.956 416.145 25.81 414.803 26.664C379.362 82.479 315.587 184.349 302.533 204.784L301.648 203.869C302.99 201.582 363.96 97.6985 399.98 36.302C398.12 37.522 396.229 38.742 394.338 39.9925C359.568 94.8925 307.047 179.652 295.487 197.556L294.298 196.336L381.192 48.563C378.966 49.9965 376.831 51.43 374.757 52.772L288.32 190.144L286.978 188.772L347.703 85.7425H342.274L281.274 182.885L279.658 181.238L336.083 85.6815H330.562L274.198 175.596L272.338 173.674L324.432 85.6205H324.371L314.275 92.8795L267.092 168.306L264.987 166.141L304.058 100.23L301.496 102.091L299.056 98.522L260.016 161.047L257.637 158.607L295.975 94.0385L292.925 89.555L252.909 153.758L250.286 151.043L288.32 87.115C286.886 87.176 284.934 87.237 282.586 87.3285L245.833 146.468L242.936 143.479L276.272 87.5725C274.503 87.6335 272.612 87.725 270.63 87.786L238.757 139.148L235.616 135.915L264.225 88.03C262.425 88.091 260.595 88.1825 258.704 88.2435L231.681 131.859L228.265 128.351L252.116 88.4875C250.347 88.5485 248.548 88.64 246.748 88.701L224.575 124.569L220.884 120.787L239.977 88.9755C238.239 89.0365 236.531 89.128 234.823 89.189L217.499 117.31L213.564 113.254L227.869 89.4635C226.191 89.5245 224.575 89.616 222.958 89.677L210.453 110.021L206.244 105.72L215.73 89.982C214.144 90.043 212.588 90.104 211.094 90.1955L203.377 102.762L198.924 98.1865L203.56 90.531C202.005 90.592 200.541 90.653 199.229 90.714L196.301 95.472L192.031 91.08C191.635 91.08 191.421 91.141 191.391 91.141C191.391 91.141 191.391 91.324 191.482 91.5985L195.783 96.326L195.722 96.4175L195.996 96.6005L367.376 284.816L366.827 285.426C363.106 281.614 245.04 159.949 196.179 109.594C196.454 110.6 196.728 111.637 197.003 112.674C242.692 163.182 345.873 275.331 360.818 292.014L359.934 292.99L201.486 129.297C201.913 130.852 202.31 132.408 202.737 133.963C249.829 185.996 340.81 284.054 354.23 299.243L353.01 300.554L206.824 149.122C207.312 150.952 207.8 152.751 208.288 154.52L347.52 306.563L346.117 308.118L212.222 169.069C212.832 171.356 213.412 173.491 213.961 175.474L228.204 190.998L234.731 192.981L233.481 196.763L340.932 313.883L339.255 315.743L231.315 203.351L229.912 207.56L334.314 321.142L332.362 323.307L227.777 214.117L226.374 218.357L327.695 328.401L325.469 330.841L229.211 230.069L232.108 239.188L321.077 335.66L318.576 338.405L231.864 247.393L227.411 248.704L314.458 342.949L311.683 345.969L221.037 250.565L217.011 251.724C217.011 251.724 217.011 251.815 216.95 251.937L298.781 340.418L300.337 338.191L314.214 348.378L434.384 225.25L434.842 225.982C432.798 228.208 370.426 296.498 319.491 352.282L322.541 354.509C369.389 306.319 425.448 248.338 439.783 233.759L440.484 234.857C438.593 236.901 379.576 301.439 330.654 354.936H336.296C380.613 309.186 431.822 255.78 445.181 242.299L446.096 243.763L344.196 354.997H349.869L450.702 250.992L451.739 252.639L351.028 362.408L350.845 368.447L456.131 259.562L457.381 261.514L353.193 374.913C354.078 375.493 355.176 376.255 356.457 377.109L461.56 268.163L462.993 270.42L361.642 380.586C362.679 381.288 363.777 382.02 364.936 382.782L466.989 276.734L468.605 279.296L370.09 386.229C371.158 386.961 372.256 387.693 373.384 388.425L472.418 285.274L474.248 288.171L378.569 391.871C379.667 392.603 380.765 393.335 381.863 394.067L477.847 293.844L479.86 297.047L387.048 397.544C388.146 398.276 389.244 399.008 390.312 399.74L461.804 324.893L458.601 320.654L481.507 304.184L484.16 296.193L417.243 181.055H418.219C418.921 182.153 453.813 237.267 486.539 288.995L488.43 283.291C463.42 240.53 437.434 196.244 428.559 180.903H430.023L491.206 277.74L498.129 280.211L440.027 180.72H441.826L506.456 283.2L507.523 283.566C507.523 283.566 508.56 282.742 510.421 281.278L451.464 180.506H453.66L514.874 277.771C515.941 276.917 517.131 276.002 518.381 274.995L462.841 180.323H465.433L522.743 271.549C523.902 270.634 525.091 269.719 526.311 268.743L474.217 180.14L477.237 180.079L530.642 265.296C531.832 264.381 533.021 263.405 534.241 262.46L485.624 179.957L489.04 179.896L538.542 259.044C539.731 258.098 540.921 257.153 542.141 256.207L497.001 179.774L500.844 179.713L546.472 252.791C547.661 251.846 548.881 250.9 550.071 249.955L508.408 179.591L512.647 179.53L554.402 246.539C555.591 245.593 556.781 244.648 557.97 243.733L519.784 179.439L524.451 179.378L562.332 240.286C563.521 239.341 564.68 238.426 565.839 237.511L531.191 179.256H533.753L533.631 179.225ZM429.077 217.137L373.659 277.923L316.227 218.906L337.577 182.397L406.324 181.299L429.077 217.167V217.137ZM407.178 411.025L463.085 352.191C464.976 347.25 466.562 343.071 467.69 340.082L404.006 408.89C405.074 409.592 406.141 410.324 407.178 410.995V411.025ZM424.106 422.249L444.663 400.503C445.852 397.392 447.103 394.128 448.384 390.804L421.086 420.236C422.154 420.938 423.16 421.608 424.106 422.249ZM508.042 158.638L504.839 159.766C506.334 159.766 507.859 159.736 509.353 159.705C508.499 159.034 508.042 158.668 508.042 158.668V158.638ZM362.221 60.8545C358.988 62.959 356.365 64.6975 354.596 65.8565L352.126 69.791L352.278 77.721L362.221 60.8545ZM538.694 183.312L570.14 233.973C571.329 233.027 572.458 232.112 573.556 231.258L550.772 193.042C546.746 189.778 542.659 186.515 538.694 183.312ZM573.098 211.098C569.957 208.536 566.358 205.638 562.545 202.558L578.1 227.659C579.32 226.683 580.449 225.768 581.425 225.006L573.098 211.098ZM191.848 341.119L198.833 348.622C200.114 348.683 201.486 348.775 202.981 348.836L192.763 337.856C192.428 339.045 192.153 340.113 191.879 341.119H191.848ZM204.262 296.62L255.258 351.52C257.21 351.611 259.162 351.703 261.022 351.794L205.36 292.594C204.994 293.936 204.597 295.278 204.231 296.62H204.262ZM201.151 307.752L241.197 350.818C242.966 350.91 244.735 351.001 246.474 351.093L202.249 303.909C201.883 305.19 201.517 306.502 201.151 307.783V307.752ZM198.04 318.854L227.106 350.086C228.692 350.178 230.339 350.239 231.956 350.33L199.077 315.164C198.741 316.414 198.375 317.634 198.04 318.854ZM194.929 329.987L212.954 349.354C214.418 349.415 215.882 349.507 217.438 349.598L195.905 326.51C195.569 327.699 195.234 328.889 194.929 330.017V329.987Z" fill="white"/>
<path d="M38 536V466H49.5191V536H38ZM45.902 506.306V496.806H63.6258C67.1594 496.806 69.914 495.889 71.8894 494.056C73.8649 492.222 74.8388 489.667 74.8388 486.417C74.8388 483.472 73.8649 481.028 71.9451 479.028C69.9974 477.028 67.2707 476.028 63.7371 476.028H45.902V466.028H64.2379C68.6341 466.028 72.5294 466.917 75.8683 468.667C79.2071 470.444 81.7947 472.833 83.6311 475.861C85.4675 478.889 86.3857 482.333 86.3857 486.222C86.3857 490.278 85.4675 493.833 83.6311 496.833C81.7947 499.833 79.2071 502.167 75.8683 503.833C72.5294 505.5 68.6619 506.333 64.2379 506.333H45.902V506.306ZM76.4526 536L51.9119 505.611L62.6241 501.722L90.9766 536.028H76.4526V536Z" fill="white"/>
<path d="M116.66 537C112.598 537 108.953 536.111 105.781 534.306C102.609 532.5 100.132 530.028 98.3796 526.861C96.5989 523.695 95.7363 520.056 95.7363 515.917V488.028H106.755V515.417C106.755 517.75 107.144 519.722 107.895 521.361C108.674 523 109.787 524.25 111.29 525.111C112.792 525.972 114.573 526.417 116.66 526.417C119.86 526.417 122.308 525.472 124.033 523.556C125.73 521.667 126.593 518.945 126.593 515.417V488.028H137.611V515.917C137.611 520.111 136.721 523.806 134.968 526.972C133.187 530.139 130.739 532.611 127.595 534.361C124.451 536.139 120.806 537 116.688 537H116.66Z" fill="white"/>
<path d="M148.154 536V464H159.173V499.806L157.281 511.417L159.173 523.111V536H148.154ZM173.891 537C170.219 537 166.935 536.222 164.07 534.639C161.204 533.084 158.95 530.917 157.308 528.195C155.667 525.472 154.86 522.361 154.86 518.889V505.083C154.86 501.611 155.695 498.528 157.364 495.778C159.033 493.056 161.315 490.889 164.181 489.333C167.047 487.778 170.302 486.972 173.891 486.972C178.232 486.972 182.155 488.083 185.661 490.333C189.167 492.556 191.949 495.556 193.98 499.333C196.011 503.111 197.041 507.361 197.041 512.084C197.041 516.806 196.011 520.972 193.98 524.722C191.949 528.5 189.167 531.472 185.661 533.667C182.155 535.861 178.232 536.972 173.891 536.972V537ZM172.083 526.611C174.754 526.611 177.119 526 179.15 524.75C181.181 523.528 182.795 521.806 183.964 519.611C185.132 517.417 185.716 514.889 185.716 512C185.716 509.111 185.132 506.611 183.964 504.389C182.795 502.195 181.181 500.472 179.15 499.25C177.119 498.028 174.754 497.389 172.083 497.389C169.412 497.389 167.047 498 164.96 499.25C162.901 500.472 161.287 502.195 160.146 504.389C159.006 506.583 158.449 509.111 158.449 512C158.449 514.889 159.006 517.389 160.146 519.611C161.287 521.834 162.873 523.528 164.96 524.75C167.019 525.972 169.412 526.611 172.083 526.611Z" fill="white"/>
<path d="M218.606 536.5L198.072 488H210.203L224.227 523.611H220.721L235.551 488H247.766L225.423 536.5H218.606ZM204.277 556L219.191 525.306L225.395 536.5L216.492 556H204.277Z" fill="white"/>
<path d="M254.916 536V466H266.435V536H254.916ZM297.292 536L264.849 499.5L296.596 466H311.315L276.257 502.389V496.083L312.317 535.972H297.292V536Z" fill="white"/>
<path d="M333.546 537C329.205 537 325.282 535.889 321.776 533.695C318.271 531.5 315.488 528.5 313.457 524.75C311.426 521 310.396 516.778 310.396 512.111C310.396 507.445 311.426 503.139 313.457 499.361C315.488 495.584 318.271 492.584 321.776 490.361C325.282 488.139 329.205 487 333.546 487C337.219 487 340.474 487.778 343.312 489.361C346.15 490.917 348.404 493.084 350.073 495.806C351.743 498.528 352.577 501.639 352.577 505.111V518.917C352.577 522.389 351.771 525.473 350.129 528.223C348.487 530.945 346.234 533.112 343.368 534.667C340.502 536.223 337.219 537.028 333.546 537.028V537ZM335.354 526.612C339.417 526.612 342.728 525.25 345.232 522.5C347.736 519.778 348.988 516.278 348.988 512C348.988 509.139 348.432 506.611 347.291 504.389C346.15 502.195 344.564 500.473 342.533 499.25C340.502 498.028 338.109 497.389 335.382 497.389C332.656 497.389 330.346 498 328.315 499.25C326.284 500.473 324.67 502.195 323.502 504.389C322.333 506.584 321.749 509.111 321.749 512C321.749 514.889 322.333 517.389 323.502 519.611C324.67 521.806 326.284 523.528 328.315 524.75C330.346 525.973 332.711 526.612 335.382 526.612H335.354ZM348.265 536V523.111L350.157 511.417L348.265 499.806V488H359.283V536H348.265Z" fill="white"/>
<path d="M376.173 479.195C374.309 479.195 372.751 478.556 371.526 477.306C370.302 476.028 369.662 474.473 369.662 472.611C369.662 470.75 370.274 469.167 371.526 467.917C372.751 466.639 374.309 466.028 376.173 466.028C378.037 466.028 379.679 466.667 380.875 467.917C382.072 469.195 382.684 470.75 382.684 472.611C382.684 474.473 382.072 476.056 380.875 477.306C379.679 478.584 378.093 479.195 376.173 479.195ZM370.664 536.001V488H381.682V536.001H370.664Z" fill="white"/>
<path d="M412.621 535C408.336 535 404.497 533.944 401.047 531.861C397.596 529.75 394.897 526.889 392.922 523.222C390.946 519.555 389.973 515.444 389.973 510.917C389.973 506.389 390.946 502.305 392.922 498.722C394.897 495.111 397.596 492.278 401.047 490.166C404.497 488.055 408.336 487.028 412.621 487.028C416.433 487.028 419.772 487.805 422.638 489.333C425.504 490.861 427.757 492.972 429.343 495.694C430.957 498.389 431.736 501.555 431.736 505.139V516.944C431.736 520.472 430.929 523.611 429.288 526.333C427.646 529.055 425.392 531.194 422.527 532.722C419.661 534.25 416.35 535.028 412.621 535.028V535ZM413.122 557C408.058 557 403.606 556.083 399.794 554.25C395.983 552.417 392.922 549.833 390.585 546.5L397.791 539.306C399.739 541.694 401.937 543.5 404.413 544.694C406.89 545.889 409.867 546.5 413.317 546.5C417.657 546.5 421.108 545.389 423.639 543.139C426.171 540.917 427.451 537.861 427.451 534V522.194L429.343 511.583L427.451 500.889V488H438.47V534C438.47 538.611 437.412 542.611 435.27 546.056C433.127 549.5 430.15 552.167 426.366 554.111C422.554 556.056 418.158 557 413.15 557H413.122ZM414.819 524.611C417.49 524.611 419.828 524.055 421.831 522.917C423.834 521.778 425.392 520.194 426.478 518.167C427.59 516.139 428.119 513.75 428.119 511.028C428.119 508.305 427.563 505.917 426.478 503.889C425.365 501.861 423.834 500.278 421.831 499.139C419.828 498 417.49 497.444 414.819 497.444C412.148 497.444 409.783 498 407.752 499.139C405.721 500.278 404.135 501.861 402.994 503.889C401.853 505.917 401.297 508.305 401.297 511.028C401.297 513.75 401.853 516.055 402.994 518.139C404.135 520.194 405.721 521.805 407.752 522.944C409.783 524.083 412.148 524.639 414.819 524.639V524.611Z" fill="white"/>
<path d="M455.3 479.195C453.436 479.195 451.878 478.556 450.653 477.306C449.429 476.028 448.789 474.473 448.789 472.611C448.789 470.75 449.401 469.167 450.653 467.917C451.878 466.639 453.436 466.028 455.3 466.028C457.164 466.028 458.806 466.667 460.002 467.917C461.198 469.195 461.811 470.75 461.811 472.611C461.811 474.473 461.198 476.056 460.002 477.306C458.806 478.584 457.22 479.195 455.3 479.195ZM449.791 536.001V488H460.809V536.001H449.791Z" fill="white"/>
<path d="M489.858 529.195L515.707 501.806C517.849 499.528 519.574 497.5 520.91 495.695C522.245 493.889 523.219 492.195 523.803 490.584C524.416 488.973 524.694 487.361 524.694 485.695C524.694 482.556 523.664 480.111 521.633 478.334C519.602 476.556 517.014 475.695 513.87 475.695C510.532 475.695 507.582 476.528 505.05 478.195C502.518 479.861 500.237 482.473 498.233 486L490.22 479.389C492.947 474.667 496.341 471.084 500.348 468.639C504.355 466.195 509.001 465 514.26 465C518.6 465 522.412 465.861 525.668 467.611C528.923 469.334 531.483 471.75 533.291 474.861C535.1 477.973 535.99 481.556 535.99 485.611C535.99 488.556 535.629 491.167 534.933 493.473C534.237 495.778 533.041 498.084 531.372 500.362C529.702 502.667 527.393 505.334 524.471 508.417L504.633 528.917L489.803 529.223L489.858 529.195ZM489.858 536V529.195L499.764 525.695H537.437V536H489.858Z" fill="white"/>
<path d="M573.277 537C567.99 537 563.177 535.528 558.808 532.556C554.44 529.584 550.934 525.417 548.347 520C545.731 514.612 544.451 508.223 544.451 500.889C544.451 493.556 545.731 487.195 548.319 481.834C550.879 476.472 554.356 472.306 558.697 469.389C563.038 466.445 567.851 465 573.11 465C578.368 465 583.293 466.472 587.634 469.389C591.974 472.334 595.424 476.472 598.012 481.834C600.572 487.195 601.88 493.584 601.88 500.973C601.88 508.362 600.6 514.667 598.012 520.084C595.452 525.473 592.002 529.639 587.689 532.584C583.377 535.528 578.591 536.973 573.305 536.973L573.277 537ZM573.082 526.195C576.56 526.195 579.565 525.25 582.097 523.389C584.629 521.528 586.632 518.723 588.051 515C589.498 511.278 590.194 506.556 590.194 500.889C590.194 495.223 589.47 490.611 588.051 486.889C586.604 483.167 584.601 480.361 582.041 478.528C579.481 476.695 576.476 475.778 573.082 475.778C569.687 475.778 566.682 476.695 564.123 478.528C561.563 480.361 559.56 483.139 558.168 486.834C556.777 490.528 556.054 495.223 556.054 500.889C556.054 506.556 556.749 511.25 558.168 515C559.56 518.723 561.563 521.528 564.123 523.389C566.682 525.25 569.687 526.195 573.082 526.195Z" fill="white"/>
<path d="M606.247 529.195L632.095 501.806C634.238 499.528 635.963 497.5 637.298 495.695C638.634 493.889 639.608 492.195 640.192 490.584C640.804 488.973 641.083 487.361 641.083 485.695C641.083 482.556 640.053 480.111 638.022 478.334C635.991 476.556 633.403 475.695 630.259 475.695C626.92 475.695 623.971 476.528 621.439 478.195C618.907 479.861 616.625 482.473 614.622 486L606.609 479.389C609.336 474.667 612.73 471.084 616.737 468.639C620.743 466.195 625.39 465 630.649 465C634.989 465 638.801 465.861 642.056 467.611C645.312 469.334 647.872 471.75 649.68 474.861C651.489 477.973 652.379 481.556 652.379 485.611C652.379 488.556 652.017 491.167 651.322 493.473C650.626 495.778 649.43 498.084 647.76 500.362C646.091 502.667 643.781 505.334 640.86 508.417L621.022 528.917L606.191 529.223L606.247 529.195ZM606.247 536V529.195L616.152 525.695H653.826V536H606.247Z" fill="white"/>
<path d="M684.181 537C679.507 537 675.305 535.917 671.549 533.75C667.821 531.584 664.844 528.667 662.673 525C660.503 521.334 659.418 517.278 659.418 512.806C659.418 506.417 661.644 499.945 666.124 493.417L685.266 466.028H698.594L678.171 494.723L673.97 497.223C674.638 495.695 675.472 494.361 676.53 493.278C677.559 492.167 678.922 491.334 680.648 490.723C682.345 490.111 684.459 489.834 687.019 489.834C691.081 489.834 694.782 490.778 698.093 492.695C701.404 494.584 704.047 497.223 706.051 500.584C708.054 503.945 709.056 507.889 709.056 512.445C709.056 517 707.943 521.112 705.745 524.834C703.547 528.556 700.542 531.528 696.785 533.723C693.001 535.917 688.828 537.028 684.209 537.028L684.181 537ZM684.181 526.195C686.713 526.195 688.995 525.584 690.998 524.389C693.001 523.195 694.587 521.528 695.756 519.445C696.925 517.334 697.509 515 697.509 512.389C697.509 509.778 696.925 507.445 695.756 505.389C694.587 503.334 693.001 501.695 690.998 500.528C688.995 499.362 686.713 498.778 684.181 498.778C681.649 498.778 679.368 499.389 677.364 500.584C675.361 501.778 673.803 503.389 672.662 505.445C671.521 507.473 670.965 509.806 670.965 512.389C670.965 514.973 671.521 517.334 672.662 519.445C673.803 521.556 675.361 523.195 677.364 524.389C679.368 525.584 681.649 526.195 684.181 526.195Z" fill="white"/>
</g>
<defs>
<filter id="filter0_d_2309_16906" x="-6.4707" y="-4" width="760" height="636" filterUnits="userSpaceOnUse" color-interpolation-filters="sRGB">
<feFlood flood-opacity="0" result="BackgroundImageFix"/>
<feColorMatrix in="SourceAlpha" type="matrix" values="0 0 0 0 0 0 0 0 0 0 0 0 0 0 0 0 0 0 127 0" result="hardAlpha"/>
<feMorphology radius="12" operator="erode" in="SourceAlpha" result="effect1_dropShadow_2309_16906"/>
<feOffset dy="25"/>
<feGaussianBlur stdDeviation="25"/>
<feColorMatrix type="matrix" values="0 0 0 0 0 0 0 0 0 0 0 0 0 0 0 0 0 0 0.25 0"/>
<feBlend mode="normal" in2="BackgroundImageFix" result="effect1_dropShadow_2309_16906"/>
<feBlend mode="normal" in="SourceGraphic" in2="effect1_dropShadow_2309_16906" result="shape"/>
</filter>
</defs>
</svg>
