<svg width="627" height="522" viewBox="0 0 627 522" fill="none" xmlns="http://www.w3.org/2000/svg">
<g clip-path="url(#clip0_57_384)">
<path d="M310.982 23.2055C212.731 23.2055 132.74 103.264 132.74 201.597C132.74 299.931 212.731 379.989 310.982 379.989C409.232 379.989 489.224 299.931 489.224 201.597C489.224 103.264 409.232 23.2055 310.982 23.2055ZM310.982 403.195C199.979 403.195 109.554 312.694 109.554 201.597C109.554 90.5013 199.979 0 310.982 0C421.984 0 512.41 90.5013 512.41 201.597C512.41 312.694 421.984 403.195 310.982 403.195Z" fill="white"/>
<path d="M370.975 134.011L375.033 129.95C359.092 116.027 338.805 107.035 316.198 105.875V111.676C337.066 112.836 356.194 121.248 370.975 134.011Z" fill="white"/>
<path d="M416.478 88.4704C418.507 86.4399 419.376 83.8293 419.376 81.2187C419.376 78.6081 417.927 75.9975 415.898 74.2571C390.394 53.0821 359.672 40.3191 326.922 37.4184C324.314 37.4184 321.705 37.9985 319.676 39.7389C317.648 41.4794 316.488 44.09 316.488 46.9907V99.7831C340.544 100.943 362.57 110.516 379.38 125.599L416.478 88.4704Z" fill="white"/>
<path d="M243.453 141.263L239.395 137.202C224.904 152.866 215.629 173.461 214.18 196.086H219.977C221.426 174.911 230.121 156.057 243.453 141.263Z" fill="white"/>
<path d="M198.24 96.0128C196.211 93.9823 193.603 93.1121 190.994 93.1121C188.386 93.1121 185.778 94.5625 184.039 96.5929C162.881 122.119 150.129 152.866 147.231 185.644C147.231 188.255 147.81 190.865 149.549 192.896C151.288 194.926 153.897 196.086 156.795 196.086H208.674C210.123 171.721 219.977 149.966 235.627 132.851L198.53 95.7227L198.24 96.0128Z" fill="white"/>
<path d="M305.765 46.9913C305.765 44.3807 304.606 41.48 302.577 39.7396C300.548 37.9992 297.94 37.129 295.331 37.419C262.581 40.6098 231.86 53.3728 206.355 74.2577C204.326 75.9981 202.877 78.6087 202.877 81.2194C202.877 83.83 203.747 86.7307 205.775 88.4711L242.873 125.6C259.683 110.516 281.709 100.944 305.765 99.7837V46.9913Z" fill="white"/>
<path d="M305.765 111.676V105.875C283.448 107.035 262.871 116.027 246.931 129.95L250.988 134.011C265.769 120.958 284.898 112.836 305.765 111.676Z" fill="white"/>
<path d="M219.977 206.819H214.18C215.05 229.734 224.034 250.619 238.236 266.863L242.293 262.802C228.961 247.718 220.846 228.284 219.977 206.819Z" fill="white"/>
<path d="M156.505 206.818C153.897 206.818 150.998 207.979 149.26 210.009C147.521 212.04 146.651 214.65 146.941 217.261C150.129 250.039 162.881 280.786 183.749 306.312C185.488 308.342 188.096 309.793 190.704 309.793C190.704 309.793 190.994 309.793 191.284 309.793C193.892 309.793 196.211 308.632 198.24 306.892L234.178 270.924C218.817 253.81 209.253 231.184 208.384 206.528H156.795L156.505 206.818Z" fill="white"/>
<path d="M249.829 270.343L245.771 274.404C261.711 289.198 282.869 298.48 305.765 299.64V293.839C284.318 292.679 264.61 283.976 249.829 270.343Z" fill="white"/>
<path d="M205.486 314.434C203.457 316.464 202.587 319.075 202.587 321.685C202.587 324.296 204.037 326.907 206.065 328.647C231.57 349.822 262.291 362.585 295.041 365.486C295.331 365.486 295.621 365.486 295.911 365.486C298.229 365.486 300.548 364.615 302.287 362.875C304.316 361.135 305.475 358.524 305.475 355.623V305.151C280.84 303.991 258.234 293.839 241.134 278.175L205.196 314.144L205.486 314.434Z" fill="white"/>
<path d="M401.987 196.376H407.783C406.334 173.75 397.059 153.156 382.568 137.492L378.511 141.553C391.843 156.346 400.537 175.491 401.987 196.376Z" fill="white"/>
<path d="M465.458 196.376C468.067 196.376 470.965 195.216 472.704 193.185C474.443 191.155 475.312 188.544 475.022 185.934C471.834 153.156 459.082 122.409 438.215 96.8828C436.476 94.8523 433.867 93.4019 431.259 93.4019C428.651 93.4019 425.752 94.2722 424.013 96.3026L386.916 133.431C402.276 150.255 412.42 172.301 413.869 196.666H465.748L465.458 196.376Z" fill="white"/>
<path d="M465.458 206.819H413.869C413 231.475 403.436 253.81 388.075 271.214L424.013 307.182C425.752 308.923 428.361 310.083 430.969 310.083C433.577 310.083 431.259 310.083 431.549 310.083C434.157 310.083 436.766 308.633 438.505 306.602C459.662 281.076 472.414 250.329 475.312 217.551C475.312 214.941 474.733 212.33 472.994 210.3C471.255 208.269 468.646 207.109 465.748 207.109L465.458 206.819Z" fill="white"/>
<path d="M379.67 262.802L383.728 266.863C397.929 250.619 406.914 229.734 407.783 206.819H401.987C401.117 228.284 392.712 247.718 379.67 262.802Z" fill="white"/>
<path d="M316.198 293.839V299.64C339.384 298.48 360.252 288.908 376.192 274.404L372.134 270.343C357.064 283.976 337.645 292.679 316.198 293.839Z" fill="white"/>
<path d="M316.198 356.204C316.198 358.814 317.358 361.715 319.386 363.455C321.125 365.196 323.444 366.066 325.763 366.066C328.081 366.066 326.342 366.066 326.632 366.066C359.382 362.875 390.104 350.112 415.608 329.227C417.637 327.487 419.086 324.876 419.086 322.266C419.086 319.655 418.217 316.754 416.188 315.014L380.25 279.046C363.15 294.709 340.833 304.862 315.909 306.022V356.494L316.198 356.204Z" fill="white"/>
<path d="M301.417 160.698H262.291L236.497 188.834H275.913L301.417 160.698Z" fill="white"/>
<path d="M336.486 188.834L310.692 160.117L284.028 188.834H336.486Z" fill="white"/>
<path d="M385.177 188.834L360.542 160.698H319.676L345.181 188.834H385.177Z" fill="white"/>
<path d="M284.897 195.505L310.692 269.763L336.486 195.505H284.897Z" fill="white"/>
<path d="M318.807 263.962L385.756 195.505H344.891L318.807 263.962Z" fill="white"/>
<path d="M235.917 195.505L302.577 263.962L276.493 195.505H235.917Z" fill="white"/>
<path d="M47.2414 495.146C47.2414 495.436 48.1109 495.726 49.56 495.726V497.177H33.3298V495.726C34.1993 495.726 34.4891 495.726 34.7789 495.436C34.7789 495.436 35.0688 494.856 34.7789 494.566L21.1572 471.651H12.7523V494.856C12.7523 494.856 12.7523 495.436 13.3319 495.436C13.6218 495.436 14.2014 495.436 14.4912 495.436V496.887H0V495.436C0.289825 495.436 0.869474 495.436 1.1593 495.436C1.44912 495.436 1.73895 495.146 1.73895 494.856V439.163C1.73895 439.163 1.73895 438.583 1.1593 438.583C0.579649 438.583 0.289825 438.583 0 438.583V437.133H24.6351C31.5909 437.133 37.0975 438.873 40.8653 442.064C44.633 445.255 46.3719 449.316 46.3719 454.537C46.3719 459.758 45.2126 462.949 42.6042 465.849C39.9958 468.75 36.8077 470.491 32.7502 471.651L47.2414 495.726V495.146ZM12.7523 446.125V462.079H26.0842C29.5621 462.079 31.8807 461.208 33.6196 459.758C35.3586 458.308 36.2281 456.277 36.2281 454.247C36.2281 452.216 35.3586 450.186 33.3298 448.735C31.5909 447.285 29.2723 446.415 26.374 446.415H13.0421L12.7523 446.125Z" fill="white"/>
<path d="M91.5844 494.857C91.5844 494.857 91.5844 495.437 92.1641 495.437C92.4539 495.437 93.0335 495.437 93.3234 495.437V496.887H83.1795V493.986C80.2813 496.597 77.0932 497.757 73.3255 497.757C67.8188 497.757 63.4714 496.017 60.863 492.826C58.2546 489.635 56.8055 485.574 56.8055 480.643V462.369C56.8055 462.369 56.8055 461.789 56.2258 461.789C55.936 461.789 55.3564 461.789 55.0665 461.789V460.339H68.6883V461.789C68.3985 461.789 67.8188 461.789 67.529 461.789C67.2392 461.789 66.9493 462.079 66.9493 462.369V480.063C66.9493 482.384 67.529 484.414 68.6883 485.865C69.8476 487.315 71.5865 488.185 74.1949 488.185C76.8034 488.185 78.2525 487.315 79.4118 485.865C80.5711 484.414 81.1507 482.674 81.1507 480.353V462.079C81.1507 462.079 81.1507 461.499 80.5711 461.499C80.2813 461.499 79.7016 461.499 79.4118 461.499V460.048H93.0335V461.499C92.7437 461.499 92.1641 461.499 91.8742 461.499C91.5844 461.499 91.2946 461.789 91.2946 462.079V494.276L91.5844 494.857Z" fill="white"/>
<path d="M135.348 461.498C138.536 463.239 140.855 465.559 142.594 468.46C144.333 471.361 145.202 474.842 145.202 478.612C145.202 482.383 144.333 485.864 142.594 488.765C140.855 491.666 138.246 493.986 135.348 495.726C132.16 497.467 128.682 498.047 124.915 498.047C121.147 498.047 116.51 496.597 113.032 493.986V496.887H101.149V495.436C101.439 495.436 102.018 495.436 102.308 495.436C102.598 495.436 102.888 495.146 102.888 494.856V439.163C102.888 439.163 102.888 438.583 102.308 438.583C102.018 438.583 101.439 438.583 101.149 438.583V437.133H114.771V438.583C114.481 438.583 113.901 438.583 113.611 438.583C113.322 438.583 113.032 438.873 113.032 439.163V462.949C116.22 460.338 120.277 459.178 124.915 459.178C129.552 459.178 132.16 460.048 135.348 461.498ZM132.45 486.734C134.769 484.704 135.638 482.093 135.638 478.612C135.638 475.132 134.479 472.811 132.45 470.781C130.421 468.75 127.523 467.59 124.335 467.59C121.147 467.59 118.249 468.75 116.22 470.781C114.191 472.811 113.032 475.422 113.032 478.903C113.032 482.383 113.611 482.673 114.481 484.124C115.35 485.864 116.799 487.024 118.538 488.185C120.277 489.055 122.306 489.635 124.335 489.635C127.523 489.635 130.131 488.765 132.45 486.734Z" fill="white"/>
<path d="M195.342 461.788C194.182 461.788 193.603 461.788 193.313 462.369L165.2 518.062C165.2 518.352 165.2 518.642 165.779 518.932C166.069 518.932 166.649 519.222 167.229 519.222V520.672H152.158V519.222C153.317 519.222 153.897 519.222 154.186 518.642L167.229 492.826L150.709 462.369C150.709 462.078 149.839 461.788 148.68 461.788V460.338H163.461V461.788C162.881 461.788 162.302 461.788 162.302 462.079C162.302 462.079 162.302 462.659 162.302 462.949L172.445 481.803L182.01 462.949C182.01 462.659 182.01 462.369 181.43 462.079C181.14 462.079 180.561 461.788 179.981 461.788V460.338H195.052V461.788H195.342Z" fill="white"/>
<path d="M253.017 495.436C253.017 495.436 253.597 495.726 254.176 495.726C254.756 495.726 255.046 495.726 255.046 495.726V497.177H236.787V495.726C237.656 495.726 237.946 495.726 237.946 495.726C237.946 495.726 237.946 495.436 237.946 495.146L217.079 471.941L214.47 474.552V494.856C214.47 494.856 214.47 495.436 215.05 495.436C215.34 495.436 215.919 495.436 216.209 495.436V496.887H202.298V495.436C202.587 495.436 203.167 495.436 203.457 495.436C203.747 495.436 204.037 495.146 204.037 494.856V439.163C204.037 439.163 204.037 438.583 203.457 438.583C203.167 438.583 202.587 438.583 202.298 438.583V437.133H216.209V438.583C215.919 438.583 215.34 438.583 215.05 438.583C214.76 438.583 214.47 438.873 214.47 439.163V460.338L235.627 439.163C235.627 439.163 235.627 439.163 235.627 438.873C235.627 438.873 235.338 438.583 234.468 438.583V437.133H252.727V438.583H251.278C250.698 438.583 250.408 438.583 250.119 438.583L224.614 464.399L252.727 495.726L253.017 495.436Z" fill="white"/>
<path d="M300.258 461.789C299.968 461.789 299.389 461.789 299.099 461.789C298.809 461.789 298.519 462.079 298.519 462.369V494.567C298.519 494.567 298.519 495.147 299.099 495.147C299.389 495.147 299.968 495.147 300.258 495.147V496.597H288.375V492.246C284.897 496.017 280.84 497.758 275.623 497.758C270.406 497.758 268.377 496.887 265.189 495.437C262.291 493.987 259.973 491.666 258.234 488.475C256.495 485.575 255.915 482.094 255.915 478.033C255.915 473.972 256.784 470.781 258.523 467.881C260.262 464.98 262.871 462.659 265.769 460.919C268.667 459.178 272.145 458.598 275.623 458.598C280.84 458.598 285.187 460.629 288.375 464.69V459.759H300.258V461.209V461.789ZM282.579 488.185C284.318 487.315 285.767 485.865 286.636 484.124C287.506 482.384 288.086 480.644 288.086 478.903C288.086 475.712 286.926 473.102 284.897 470.781C282.869 468.751 279.97 467.59 276.493 467.59C273.015 467.59 270.406 468.751 268.377 470.781C266.349 472.812 265.189 475.422 265.189 478.613C265.189 481.804 266.349 484.705 268.377 486.735C270.696 488.765 273.305 489.636 276.493 489.636C279.681 489.636 280.55 489.056 282.289 488.185H282.579Z" fill="white"/>
<path d="M310.692 461.789C310.402 461.789 309.822 461.789 309.533 461.789V460.338H323.444V461.789C323.154 461.789 322.575 461.789 322.285 461.789C321.995 461.789 321.705 462.079 321.705 462.369V494.567C321.705 494.567 321.705 495.147 322.285 495.147C322.575 495.147 323.154 495.147 323.444 495.147V496.597H309.533V495.147C309.822 495.147 310.402 495.147 310.692 495.147C310.982 495.147 311.272 494.857 311.272 494.567V462.369C311.272 462.369 311.272 461.789 310.692 461.789ZM312.141 451.636C310.982 450.476 310.402 449.026 310.402 447.285C310.402 445.545 310.982 444.095 312.141 442.934C313.3 441.774 314.749 441.194 316.488 441.194C318.227 441.194 319.676 441.774 320.836 442.934C321.995 444.095 322.575 445.545 322.575 447.285C322.575 449.026 321.995 450.476 320.836 451.636C319.676 452.797 318.227 453.377 316.488 453.377C314.749 453.377 313.3 452.797 312.141 451.636Z" fill="white"/>
<path d="M374.163 460.048V461.499C373.874 461.499 373.294 461.499 373.004 461.499C372.714 461.499 372.424 461.789 372.424 462.079V499.788C372.424 506.459 370.686 511.68 366.628 515.451C362.86 519.222 357.354 520.963 350.688 520.963C344.022 520.963 345.181 520.092 341.993 518.642C338.805 517.192 336.196 514.871 333.588 511.68C333.588 511.68 333.588 511.68 333.008 511.68C332.719 511.68 332.139 511.68 331.559 512.26L330.69 511.1L340.834 502.978L341.703 504.139C341.703 504.139 341.123 504.719 340.834 505.009C340.834 505.299 340.834 505.589 340.834 505.879C342.283 507.619 343.732 509.07 345.181 509.94C346.63 510.81 348.659 511.39 350.688 511.39C354.166 511.39 357.064 510.52 358.803 508.78C360.832 507.039 361.701 504.429 361.701 500.948V493.696C358.223 496.307 354.455 497.757 350.108 497.757C345.761 497.757 342.573 496.887 339.384 495.437C336.196 493.696 333.878 491.376 332.139 488.475C330.4 485.574 329.53 482.093 329.53 478.322C329.53 474.552 330.4 471.071 332.139 468.17C333.878 465.269 336.486 462.949 339.674 461.499C342.862 460.048 346.34 459.178 350.108 459.178C353.876 459.178 358.513 460.338 361.701 462.949V460.048H373.584H374.163ZM359.672 486.734C361.701 484.704 362.57 482.093 362.57 478.903C362.57 475.712 361.411 473.101 359.382 470.781C357.354 468.75 354.455 467.59 351.267 467.59C348.079 467.59 345.471 468.75 343.152 470.781C341.123 472.811 339.964 475.422 339.964 478.613C339.964 481.803 341.123 484.704 343.152 486.444C345.181 488.475 348.079 489.345 351.267 489.345C354.455 489.345 357.643 488.475 359.672 486.444V486.734Z" fill="white"/>
<path d="M385.177 461.789C384.887 461.789 384.307 461.789 384.017 461.789V460.338H397.929V461.789C397.639 461.789 397.059 461.789 396.77 461.789C396.48 461.789 396.19 462.079 396.19 462.369V494.567C396.19 494.567 396.19 495.147 396.77 495.147C397.059 495.147 397.639 495.147 397.929 495.147V496.597H384.017V495.147C384.307 495.147 384.887 495.147 385.177 495.147C385.466 495.147 385.756 494.857 385.756 494.567V462.369C385.756 462.369 385.756 461.789 385.177 461.789ZM386.626 451.636C385.466 450.476 384.887 449.026 384.887 447.285C384.887 445.545 385.466 444.095 386.626 442.934C387.785 441.774 389.234 441.194 390.973 441.194C392.712 441.194 394.161 441.774 395.32 442.934C396.48 444.095 397.059 445.545 397.059 447.285C397.059 449.026 396.48 450.476 395.32 451.636C394.161 452.797 392.712 453.377 390.973 453.377C389.234 453.377 387.785 452.797 386.626 451.636Z" fill="white"/>
<path d="M467.487 485.864V498.917H466.038C466.038 498.627 466.038 498.047 466.038 497.757C466.038 497.467 465.748 497.177 465.458 497.177H424.303V494.566L448.359 468.46C450.677 465.85 452.416 463.529 453.865 461.499C455.314 459.468 455.894 457.438 455.894 455.117C455.894 452.797 455.025 449.606 452.996 447.575C451.257 445.545 448.648 444.675 445.75 444.675C442.852 444.675 440.823 445.545 438.794 447.285C436.766 449.026 435.606 451.346 435.606 454.247C435.606 454.247 435.896 454.827 436.476 454.827C437.055 454.827 437.345 454.827 437.925 454.827V456.277H422.854V454.827C423.144 454.827 423.724 454.827 424.013 454.827C424.593 454.827 424.883 454.537 424.883 454.247C425.173 450.766 426.332 447.285 428.071 444.385C429.81 441.484 432.418 439.163 435.316 437.423C438.505 435.683 442.272 434.812 446.33 434.812C450.387 434.812 454.445 435.683 457.633 437.713C460.821 439.743 463.14 442.354 464.589 445.255C466.038 448.446 466.907 451.636 466.907 455.117C466.907 458.598 466.618 459.758 465.748 461.789C464.879 463.819 463.719 465.85 462.27 467.88C460.821 469.911 458.502 472.521 455.604 475.712L445.171 487.315H465.458C465.458 487.315 466.038 487.315 466.038 486.735C466.038 486.444 466.038 485.864 466.038 485.574H467.487V485.864Z" fill="white"/>
<path d="M488.354 496.597C484.876 494.856 482.268 492.246 479.949 488.765C477.921 485.284 476.761 481.223 476.761 476.582V458.308C476.761 454.247 477.631 450.476 479.08 446.995C480.819 443.514 483.137 440.324 486.615 438.293C490.093 435.973 494.151 434.812 499.078 434.812C504.005 434.812 508.932 435.973 512.12 438.293C515.598 440.614 517.916 443.514 519.366 446.995C520.815 450.476 521.684 454.247 521.684 458.308V476.872C521.684 484.124 519.655 489.635 515.598 493.406C511.54 497.177 506.034 499.208 499.078 499.208C492.122 499.208 491.253 498.337 488.064 496.597H488.354ZM507.773 484.994C509.801 482.674 510.671 478.613 510.671 473.101V459.178C510.671 454.827 509.801 451.636 507.773 449.316C505.744 446.995 502.846 445.835 499.078 445.835C495.31 445.835 492.992 446.995 490.963 449.316C488.934 451.636 488.064 455.117 488.064 459.468V473.972C488.064 478.903 489.224 482.384 491.253 484.994C493.281 487.605 496.18 488.765 499.657 488.765C503.135 488.765 506.034 487.605 508.062 485.284L507.773 484.994Z" fill="white"/>
<path d="M575.302 485.864V498.917H573.853C573.853 498.627 573.853 498.047 573.853 497.757C573.853 497.467 573.563 497.177 573.273 497.177H532.118V494.566L556.173 468.46C558.492 465.85 560.231 463.529 561.68 461.499C563.129 459.468 563.709 457.438 563.709 455.117C563.709 452.797 562.839 449.606 560.81 447.575C559.071 445.545 556.463 444.675 553.565 444.675C550.667 444.675 548.638 445.545 546.609 447.285C544.58 449.026 543.421 451.346 543.421 454.247C543.421 454.247 543.711 454.827 544.29 454.827C544.87 454.827 545.16 454.827 545.74 454.827V456.277H530.669V454.827C530.959 454.827 531.538 454.827 531.828 454.827C532.408 454.827 532.697 454.537 532.697 454.247C532.987 450.766 534.147 447.285 535.886 444.385C537.624 441.484 540.233 439.163 543.131 437.423C546.319 435.683 550.087 434.812 554.144 434.812C558.202 434.812 562.26 435.683 565.448 437.713C568.636 439.743 570.954 442.354 572.403 445.255C573.853 448.446 574.722 451.636 574.722 455.117C574.722 458.598 574.432 459.758 573.563 461.789C572.693 463.819 571.534 465.85 570.085 467.88C568.636 469.911 566.317 472.521 563.419 475.712L552.985 487.315H573.273C573.273 487.315 573.853 487.315 573.853 486.735C573.853 486.444 573.853 485.864 573.853 485.574H575.302V485.864Z" fill="white"/>
<path d="M616.457 459.178C619.645 460.918 622.253 463.239 623.992 466.43C625.731 469.62 626.601 473.391 626.601 477.452C626.601 481.513 625.731 485.574 623.702 489.055C621.964 492.246 619.355 494.856 615.877 496.887C612.399 498.627 608.632 499.497 603.994 499.497C599.357 499.497 596.749 498.627 593.851 497.177C590.952 495.726 587.764 493.406 584.866 490.215C584.866 490.215 584.866 490.215 584.286 490.215C583.997 490.215 583.417 490.215 582.547 491.085L581.678 489.925L592.401 480.643L593.561 481.803C593.271 481.803 592.981 482.383 592.691 482.963C592.691 483.253 592.401 483.834 592.691 483.834C594.14 485.574 595.879 487.024 597.618 487.895C599.647 489.055 601.676 489.345 603.994 489.345C607.762 489.345 610.66 488.185 612.689 486.154C614.718 484.124 615.587 481.223 615.587 477.742C615.587 474.261 614.428 471.941 612.399 469.91C610.371 467.88 607.472 466.72 604.284 466.72C601.096 466.72 600.227 467.01 598.488 467.88C596.749 468.75 595.589 469.91 594.72 471.071L583.707 469.04V467.59C583.997 467.59 584.286 467.59 584.866 467.59C585.735 467.59 586.025 467.59 586.025 467.01L592.112 439.453C592.112 439.163 592.112 438.873 591.822 438.873C591.822 438.873 591.242 438.873 590.952 438.873V437.423H619.935C619.935 437.423 620.514 437.423 620.514 436.843C620.514 436.552 620.514 435.972 620.514 435.682H621.964V448.735H620.514C620.514 448.445 620.514 447.865 620.514 447.575C620.514 447.285 620.225 446.995 619.935 446.995H601.096L598.778 458.017C600.806 457.437 602.835 457.147 605.154 457.147C609.501 457.147 613.269 458.018 616.457 459.758V459.178Z" fill="white"/>
</g>
<defs>
<clipPath id="clip0_57_384">
<rect width="626.601" height="521.253" fill="white"/>
</clipPath>
</defs>
</svg>
