<svg width="135" height="24" viewBox="0 0 135 24" fill="none" xmlns="http://www.w3.org/2000/svg">
<path fill-rule="evenodd" clip-rule="evenodd" d="M88.9564 7.56461C88.7243 7.52412 88.4544 7.50118 88.1467 7.50118C87.4896 7.50118 86.9768 7.56461 86.3858 7.90195C85.8501 8.20826 85.4277 8.54965 85.0796 9.18116L84.9879 8.14619C84.9803 8.04047 84.933 7.94155 84.8553 7.86941C84.7777 7.79727 84.6755 7.7573 84.5695 7.75757H81.6279C81.5727 7.75739 81.5181 7.76812 81.4671 7.78915C81.4161 7.81017 81.3698 7.84108 81.3308 7.88008C81.2918 7.91909 81.2609 7.96542 81.2398 8.01642C81.2188 8.06741 81.2081 8.12206 81.2083 8.17722V21.1879C81.2081 21.2431 81.2188 21.2977 81.2398 21.3487C81.2609 21.3997 81.2918 21.446 81.3308 21.485C81.3698 21.524 81.4161 21.5549 81.4671 21.576C81.5181 21.597 81.5727 21.6077 81.6279 21.6075H84.7814C84.8366 21.6077 84.8912 21.597 84.9422 21.576C84.9932 21.5549 85.0395 21.524 85.0785 21.485C85.1175 21.446 85.1484 21.3997 85.1695 21.3487C85.1905 21.2977 85.2012 21.2431 85.201 21.1879V13.348C85.201 12.6936 85.6517 11.8745 86.1672 11.4994C86.6368 11.1566 87.163 10.9192 87.8755 10.8571C88.0739 10.8395 88.3842 10.853 88.8039 10.8922C89.0468 10.9151 89.26 10.7248 89.2627 10.4793L89.3031 7.98696C89.3058 7.77781 89.1547 7.60239 88.9523 7.56595L88.9564 7.56461ZM98.4897 18.562L97.8784 18.589C97.3657 18.589 97.004 18.4905 96.7908 18.2948C96.5776 18.0992 96.471 17.7281 96.471 17.1816V10.8949H98.3682C98.4234 10.895 98.4781 10.8843 98.5291 10.8633C98.5801 10.8423 98.6264 10.8113 98.6654 10.7723C98.7044 10.7333 98.7353 10.687 98.7563 10.636C98.7773 10.585 98.7881 10.5304 98.7879 10.4752V7.92489C98.7881 7.86973 98.7773 7.81508 98.7563 7.76408C98.7353 7.71309 98.7044 7.66675 98.6654 7.62775C98.6264 7.58875 98.5801 7.55784 98.5291 7.53681C98.4781 7.51579 98.4234 7.50505 98.3682 7.50523H96.471V4.75251C96.4712 4.69735 96.4605 4.6427 96.4394 4.5917C96.4184 4.54071 96.3875 4.49437 96.3485 4.45537C96.3095 4.41637 96.2632 4.38546 96.2122 4.36444C96.1612 4.34341 96.1065 4.33268 96.0514 4.33285H92.8979C92.8427 4.33268 92.7881 4.34341 92.7371 4.36444C92.6861 4.38546 92.6398 4.41637 92.6007 4.45537C92.5617 4.49437 92.5308 4.54071 92.5098 4.5917C92.4888 4.6427 92.478 4.69735 92.4782 4.75251V7.50523H91.002C90.9469 7.50505 90.8922 7.51579 90.8412 7.53681C90.7902 7.55784 90.7439 7.58875 90.7049 7.62775C90.6659 7.66675 90.635 7.71309 90.6139 7.76408C90.5929 7.81508 90.5822 7.86973 90.5824 7.92489V10.4752C90.5822 10.5304 90.5929 10.585 90.6139 10.636C90.635 10.687 90.6659 10.7333 90.7049 10.7723C90.7439 10.8113 90.7902 10.8423 90.8412 10.8633C90.8922 10.8843 90.9469 10.895 91.002 10.8949H92.4769V17.666C92.4769 19.1166 92.8331 20.1799 93.5456 20.8532C94.258 21.5266 95.2863 21.8653 96.6222 21.8653C97.3091 21.8716 97.9935 21.7821 98.6557 21.5995C98.8311 21.5495 98.9525 21.3809 98.9525 21.1946V18.9776C98.9525 18.728 98.7366 18.5377 98.4883 18.5593L98.4897 18.562ZM74.0296 18.5175C73.6153 18.7523 73.1363 18.8683 72.5898 18.8683C72.104 18.8683 71.7127 18.7388 71.4185 18.477C71.1244 18.2152 70.9773 17.8779 70.9773 17.4596C70.9773 16.8618 71.1824 16.3693 71.5913 15.9807C72.0001 15.592 72.6303 15.4004 73.4858 15.4004H74.9202V17.6674C74.7407 18.0007 74.4438 18.284 74.0296 18.5175ZM76.2061 8.05983C75.356 7.68875 74.3818 7.50253 73.2807 7.50253C72.0932 7.50253 71.0461 7.69954 70.1366 8.09086C69.2272 8.48218 68.5282 9.03542 68.037 9.70336C67.6467 10.2369 67.402 10.8628 67.3272 11.5196C67.3002 11.7666 67.4986 11.9825 67.7455 11.9825H70.9058C71.1109 11.9825 71.2742 11.8286 71.3106 11.6262C71.3566 11.3149 71.5121 11.0303 71.7491 10.8233C72.0595 10.5535 72.498 10.4185 73.0607 10.4185C73.6922 10.4185 74.1591 10.5913 74.4641 10.9367C74.769 11.2821 74.9188 11.7666 74.9188 12.39V13.1456H73.4345C71.3025 13.1456 69.694 13.541 68.6145 14.3304C67.535 15.1198 66.9953 16.2438 66.9953 17.7038C66.9953 18.4972 67.2044 19.2124 67.6227 19.8493C68.041 20.4862 68.6078 20.9801 69.3257 21.3336C70.0631 21.692 70.8739 21.8736 71.6938 21.8639C73.1444 21.8639 74.2887 21.3687 75.1239 20.3796V21.1892C75.1237 21.2444 75.1345 21.2991 75.1555 21.35C75.1765 21.401 75.2074 21.4474 75.2464 21.4864C75.2854 21.5254 75.3318 21.5563 75.3828 21.5773C75.4338 21.5983 75.4884 21.6091 75.5436 21.6089H78.5176C78.5728 21.6091 78.6274 21.5983 78.6784 21.5773C78.7294 21.5563 78.7757 21.5254 78.8147 21.4864C78.8537 21.4474 78.8847 21.401 78.9057 21.35C78.9267 21.2991 78.9374 21.2444 78.9373 21.1892L78.9386 12.4183C78.9386 11.3388 78.6957 10.4523 78.2153 9.71686C77.735 8.98145 77.0684 8.4309 76.2183 8.05983H76.2061ZM129.668 10.4698C129.191 10.8935 128.494 11.104 127.582 11.104H124.614V6.30429H127.582C128.504 6.30429 129.201 6.51614 129.674 6.9385C130.146 7.36085 130.384 7.95457 130.384 8.71427C130.384 9.45913 130.145 10.0434 129.668 10.4685V10.4698ZM134.89 20.999L131.247 13.8648C132.327 13.3791 133.129 12.7179 133.692 11.8813C134.255 11.0446 134.537 9.95165 134.537 8.60227C134.537 7.39054 134.258 6.36231 133.7 5.523C133.143 4.68369 132.337 4.04679 131.293 3.61634C130.249 3.18589 129.008 2.96864 127.574 2.96864H120.864C120.809 2.96846 120.754 2.97919 120.703 3.00022C120.652 3.02124 120.606 3.05215 120.567 3.09115C120.528 3.13016 120.497 3.17649 120.476 3.22749C120.455 3.27848 120.444 3.33313 120.444 3.38829V21.1865C120.444 21.2417 120.455 21.2964 120.476 21.3473C120.497 21.3983 120.528 21.4447 120.567 21.4837C120.606 21.5227 120.652 21.5536 120.703 21.5746C120.754 21.5956 120.809 21.6064 120.864 21.6062H124.183C124.238 21.6064 124.293 21.5956 124.344 21.5746C124.395 21.5536 124.441 21.5227 124.48 21.4837C124.519 21.4447 124.55 21.3983 124.571 21.3473C124.592 21.2964 124.603 21.2417 124.603 21.1865V14.5004H127.171L130.63 21.3768C130.665 21.4463 130.719 21.5048 130.785 21.5455C130.851 21.5863 130.928 21.6078 131.006 21.6075H134.514C134.828 21.6075 135.031 21.2756 134.888 20.9963L134.89 20.999ZM117 2.94705H113.689C113.457 2.94705 113.268 3.13596 113.268 3.36805V11.1027H106.196V3.36805C106.196 3.13596 106.007 2.94705 105.775 2.94705H102.451C102.219 2.94705 102.03 3.13596 102.03 3.36805V21.1865C102.03 21.4186 102.219 21.6075 102.451 21.6075H105.775C106.007 21.6075 106.196 21.4186 106.196 21.1865V14.4478H113.271V21.1865C113.271 21.4186 113.46 21.6075 113.692 21.6075H117.003C117.235 21.6075 117.424 21.4186 117.424 21.1865V3.36805C117.424 3.13596 117.235 2.94705 117.003 2.94705H117ZM10.4268 14.2008C10.5348 14.2386 10.6481 14.2575 10.7574 14.2575C11.1717 14.2575 11.5603 13.9984 11.7047 13.5828C11.8868 13.0593 11.6102 12.4871 11.088 12.305C10.468 12.0886 9.94465 11.6598 9.61061 11.0945C9.27657 10.5292 9.15344 9.86387 9.26304 9.21645C9.37264 8.56903 9.7079 7.98132 10.2094 7.55745C10.7109 7.13358 11.3462 6.90092 12.0029 6.90071C12.5802 6.90059 13.1432 7.08021 13.6137 7.41463C14.0843 7.74905 14.439 8.22168 14.6288 8.7669C14.8109 9.29046 15.3844 9.56708 15.9053 9.38491C16.4261 9.20275 16.7054 8.62926 16.5233 8.1084C16.1467 7.0459 15.4075 6.15023 14.4357 5.57898C13.4639 5.00773 12.3217 4.79751 11.2102 4.98528C10.0987 5.17306 9.08903 5.74681 8.35881 6.6056C7.62859 7.46438 7.22463 8.55318 7.21799 9.68042C7.21854 10.6733 7.52762 11.6416 8.10248 12.4511C8.67733 13.2607 9.48956 13.8717 10.4268 14.1995V14.2008ZM60.5736 7.50118C59.6695 7.50118 58.8707 7.68335 58.1798 8.04498C57.4859 8.41038 56.8958 8.94565 56.4648 9.60081C56.1328 8.89239 55.6578 8.36613 55.0439 8.01934C54.4299 7.67256 53.6945 7.50118 52.8417 7.50118C51.997 7.50118 51.2413 7.65906 50.5747 7.97347C49.9127 8.28675 49.3338 8.75184 48.8853 9.33094L48.7882 8.14349C48.78 8.03825 48.7323 7.94 48.6548 7.86842C48.5772 7.79685 48.4754 7.75725 48.3699 7.75757H45.4282C45.3731 7.75739 45.3184 7.76812 45.2674 7.78915C45.2164 7.81017 45.1701 7.84108 45.1311 7.88008C45.0921 7.91909 45.0612 7.96542 45.0402 8.01642C45.0191 8.06741 45.0084 8.12206 45.0086 8.17722V21.1879C45.0084 21.2431 45.0191 21.2977 45.0402 21.3487C45.0612 21.3997 45.0921 21.446 45.1311 21.485C45.1701 21.524 45.2164 21.5549 45.2674 21.576C45.3184 21.597 45.3731 21.6077 45.4282 21.6075H48.5817C48.6369 21.6077 48.6915 21.597 48.7425 21.576C48.7935 21.5549 48.8399 21.524 48.8789 21.485C48.9179 21.446 48.9488 21.3997 48.9698 21.3487C48.9908 21.2977 49.0016 21.2431 49.0014 21.1879V12.5249C49.224 12.1417 49.5087 11.8448 49.8596 11.6343C50.2104 11.4238 50.6193 11.3213 51.0875 11.3213C51.5139 11.3213 51.8634 11.3793 52.1373 11.494C52.4112 11.6087 52.619 11.8246 52.7648 12.1417C52.9105 12.4588 52.9807 12.9014 52.9807 13.4722V21.1906C52.9805 21.2458 52.9912 21.3004 53.0123 21.3514C53.0333 21.4024 53.0642 21.4487 53.1032 21.4877C53.1422 21.5267 53.1885 21.5576 53.2395 21.5787C53.2905 21.5997 53.3452 21.6104 53.4003 21.6102H56.5538C56.609 21.6104 56.6636 21.5997 56.7146 21.5787C56.7656 21.5576 56.812 21.5267 56.851 21.4877C56.89 21.4487 56.9209 21.4024 56.9419 21.3514C56.9629 21.3004 56.9737 21.2458 56.9735 21.1906V12.676C57.1786 12.2496 57.4552 11.9163 57.806 11.6775C58.1569 11.4387 58.5779 11.3186 59.0745 11.3186C59.5009 11.3186 59.849 11.3766 60.1175 11.4913C60.386 11.606 60.5939 11.8205 60.7382 12.1322C60.8826 12.4439 60.9541 12.8811 60.9541 13.4438V21.1865C60.954 21.2417 60.9647 21.2964 60.9857 21.3473C61.0067 21.3983 61.0376 21.4447 61.0767 21.4837C61.1157 21.5227 61.162 21.5536 61.213 21.5746C61.264 21.5956 61.3186 21.6064 61.3738 21.6062H64.5408C64.5959 21.6064 64.6506 21.5956 64.7016 21.5746C64.7526 21.5536 64.7989 21.5227 64.8379 21.4837C64.8769 21.4447 64.9078 21.3983 64.9288 21.3473C64.9499 21.2964 64.9606 21.2417 64.9604 21.1865V12.8515C64.9604 10.9569 64.5786 9.59137 63.8135 8.75475C63.0484 7.91814 61.9675 7.49984 60.5682 7.49984L60.5736 7.50118ZM21.9815 16.3167C21.9811 17.8226 21.3828 19.2668 20.3181 20.3318C19.2533 21.3968 17.8093 21.9955 16.3033 21.9962H7.66734C6.16114 21.9958 4.71674 21.3973 3.6517 20.3323C2.58667 19.2672 1.98817 17.8228 1.98782 16.3167V7.68065C1.98817 6.93372 2.13582 6.19419 2.42231 5.50439C2.7088 4.81458 3.12851 4.18805 3.65743 3.66064C4.18634 3.13323 4.81407 2.7153 5.50468 2.43078C6.1953 2.14625 6.93525 2.00071 7.68218 2.00248H16.3182C17.8239 2.0032 19.2677 2.60166 20.3325 3.66637C21.3972 4.73108 21.9956 6.17493 21.9963 7.68065V16.3167H21.9815ZM21.7346 2.24942C21.035 1.5483 20.206 0.989664 19.2935 0.604532C18.3472 0.203803 17.3297 -0.00180789 16.302 1.19758e-05H7.66599C6.63828 -0.00180789 5.62078 0.203803 4.67442 0.604532C3.76195 0.989664 2.93294 1.5483 2.2334 2.24942C1.52903 2.95379 0.974436 3.77421 0.587166 4.69179C0.192629 5.63898 -0.00700337 6.65595 0.000187577 7.682V16.318C-0.00163229 17.3457 0.203979 18.3632 0.604707 19.3096C0.990242 20.2221 1.54934 21.0512 2.25094 21.7506C2.95048 22.4517 3.77949 23.0103 4.69196 23.3955C5.63832 23.7962 6.65582 24.0018 7.68353 24H16.3195C17.3472 24.0018 18.3647 23.7962 19.3111 23.3955C20.2236 23.0103 21.0526 22.4517 21.7521 21.7506C22.4565 21.0462 23.0111 20.2258 23.3983 19.3082C23.7991 18.3619 24.0047 17.3444 24.0029 16.3167V7.68065C24.0047 6.65295 23.7991 5.63545 23.3983 4.68909C23.0111 3.77421 22.4578 2.95244 21.7521 2.24672L21.7346 2.24942ZM13.5574 9.79782C13.0338 9.61565 12.4617 9.89228 12.2795 10.4145C12.0973 10.9367 12.374 11.5102 12.8962 11.6923C13.5161 11.9087 14.0395 12.3375 14.3736 12.9028C14.7076 13.4681 14.8307 14.1334 14.7211 14.7808C14.6115 15.4283 14.2763 16.016 13.7748 16.4399C13.2733 16.8637 12.6379 17.0964 11.9813 17.0966C11.404 17.0967 10.841 16.9171 10.3704 16.5827C9.89989 16.2482 9.54512 15.7756 9.3554 15.2304C9.17324 14.7068 8.59975 14.4302 8.07889 14.6124C7.55804 14.7946 7.27871 15.3653 7.46088 15.8889C7.83745 16.9514 8.57667 17.8471 9.54847 18.4183C10.5203 18.9896 11.6624 19.1998 12.7739 19.012C13.8854 18.8242 14.8951 18.2505 15.6253 17.3917C16.3556 16.5329 16.7595 15.4441 16.7662 14.3169C16.7656 13.324 16.4565 12.3557 15.8817 11.5462C15.3068 10.7366 14.4946 10.1256 13.5574 9.79782ZM39.1847 10.8004L36.4643 9.72091C34.8545 9.09075 33.6914 8.63466 33.6914 7.51873C33.6914 6.40279 34.6184 5.74565 36.1742 5.74565C37.4831 5.74565 38.6058 6.11268 39.8445 6.96009C39.9319 7.01882 40.0383 7.04241 40.1424 7.02615C40.2464 7.00989 40.3405 6.95498 40.4059 6.87238L42.075 4.7714C42.2167 4.59328 42.1884 4.3369 42.017 4.18712C40.4558 2.82965 38.3116 2.03082 36.1742 2.03082C32.2233 2.03082 29.2438 4.50287 29.2438 7.78185C29.2438 11.0973 31.9466 12.5317 33.1084 12.9904L35.9367 14.1806C37.448 14.8121 38.4466 15.2304 38.4466 16.3801C38.4466 17.0723 38.0957 18.2328 35.7559 18.2328C34.3877 18.2328 32.7387 17.5986 31.3475 16.5501C31.168 16.4152 30.9157 16.4394 30.7754 16.6122L28.8282 18.983C28.758 19.0678 28.7241 19.1767 28.7336 19.2864C28.7432 19.396 28.7957 19.4974 28.8795 19.5686C30.7416 21.1015 33.1786 21.9732 35.6534 21.9732C40.6676 21.9732 42.9508 18.8697 42.9508 16.013C42.9508 13.4897 41.7552 11.834 39.1901 10.8045L39.1847 10.8004Z" fill="white"/>
</svg>
